<svg id="visual" viewBox="0 0 900 600" width="900" height="600" xmlns="http://www.w3.org/2000/svg" xmlns:xlink="http://www.w3.org/1999/xlink" version="1.1"><rect x="0" y="0" width="900" height="600" fill="#32577F"></rect><path d="M0 406L90 426L180 416L270 439L360 407L450 436L540 428L630 396L720 361L810 412L900 423L900 601L810 601L720 601L630 601L540 601L450 601L360 601L270 601L180 601L90 601L0 601Z" fill="#617688"></path><path d="M0 447L90 420L180 435L270 425L360 419L450 394L540 428L630 429L720 438L810 449L900 447L900 601L810 601L720 601L630 601L540 601L450 601L360 601L270 601L180 601L90 601L0 601Z" fill="#495e6f"></path><path d="M0 431L90 495L180 435L270 497L360 474L450 496L540 446L630 488L720 463L810 497L900 492L900 601L810 601L720 601L630 601L540 601L450 601L360 601L270 601L180 601L90 601L0 601Z" fill="#324758"></path><path d="M0 518L90 478L180 489L270 470L360 487L450 505L540 509L630 501L720 488L810 518L900 483L900 601L810 601L720 601L630 601L540 601L450 601L360 601L270 601L180 601L90 601L0 601Z" fill="#1c3141"></path><path d="M0 549L90 533L180 544L270 501L360 543L450 503L540 529L630 547L720 498L810 510L900 541L900 601L810 601L720 601L630 601L540 601L450 601L360 601L270 601L180 601L90 601L0 601Z" fill="#051d2b"></path><path d="M0 570L90 546L180 569L270 570L360 574L450 553L540 564L630 549L720 537L810 555L900 575L900 601L810 601L720 601L630 601L540 601L450 601L360 601L270 601L180 601L90 601L0 601Z" fill="#000000"></path></svg>